<?xml version="1.0" encoding="UTF-8"?>
<svg version="1.1" xmlns="http://www.w3.org/2000/svg" width="492" height="492">
<path d="M0 0 C0 85.14 0 170.28 0 258 C-63.375 258.25 -63.375 258.25 -83.28662109 258.29785156 C-89.24594205 258.33112611 -89.24594205 258.33112611 -95.20523071 258.36956787 C-97.83218376 258.38405532 -100.45843253 258.39244061 -103.08535767 258.39154053 C-125.3274394 258.39206244 -145.01233649 259.77008094 -164.69458008 271.09765625 C-165.78536865 271.72542969 -166.87615723 272.35320312 -168 273 C-168.07022896 246.04340594 -168.12305606 219.08682569 -168.15543652 192.13015842 C-168.17087411 179.61237585 -168.19190399 167.09465027 -168.22631836 154.5769043 C-168.25631609 143.6603998 -168.27559756 132.74393661 -168.28226548 121.82739204 C-168.28616021 116.05266226 -168.29524805 110.27805059 -168.31719017 104.50335884 C-168.33771952 99.05577314 -168.3438009 93.60835298 -168.33932304 88.16073227 C-168.34014095 86.17313039 -168.34600772 84.18552233 -168.35761642 82.19795418 C-168.47415914 61.19444792 -166.88578434 40.26516204 -152 24 C-151.20851563 23.10539062 -150.41703125 22.21078125 -149.6015625 21.2890625 C-113.02023007 -17.86690916 -43.16326405 0 0 0 Z " fill="#DBDFDE" transform="translate(423,58)"/>
<path d="M0 0 C125.63888889 0 125.63888889 0 145 17 C145.67675781 17.58265625 146.35351562 18.1653125 147.05078125 18.765625 C158.0530047 28.93467036 166.39460254 44.80569792 167.08986294 59.95851302 C167.12571059 62.26753547 167.12846693 64.57446913 167.12025452 66.88375854 C167.12153615 68.208394 167.12153615 68.208394 167.12284368 69.55978978 C167.12448792 72.51237412 167.1189944 75.46490138 167.11352539 78.41748047 C167.11324327 80.53656513 167.11340175 82.65564989 167.1139679 84.7747345 C167.11425488 90.5242044 167.10837408 96.27365344 167.10139394 102.0231185 C167.09514399 108.03291817 167.0945553 114.04271833 167.09336853 120.05252075 C167.09026007 131.43147584 167.08205319 142.81042132 167.07201904 154.18937218 C167.06084288 167.14452353 167.05534366 180.09967534 167.05032361 193.05483031 C167.03987019 219.70322553 167.0222801 246.35161223 167 273 C163.4510706 271.61387249 160.20937802 270.02967095 156.875 268.1875 C151.55167177 265.50611985 146.25504818 263.72259878 140.5 262.1875 C139.74187012 261.98084717 138.98374023 261.77419434 138.20263672 261.5612793 C93.52661979 250.26165732 46.08121084 258.38723707 0 258 C0 172.86 0 87.72 0 0 Z " fill="#DBE0DF" transform="translate(69,58)"/>
<path d="M0 0 C1.68319336 0.03383789 1.68319336 0.03383789 3.40039062 0.06835938 C6.16412536 0.12716224 8.92512554 0.20929599 11.6875 0.3125 C11.68988835 1.56447992 11.69227671 2.81645985 11.69473743 4.10637856 C11.75209352 33.82383599 11.82482137 63.54121241 11.91648628 93.25858197 C11.92775449 96.91603998 11.93889293 100.57349838 11.94995117 104.23095703 C11.95215486 104.95909317 11.95435854 105.68722931 11.956629 106.43743019 C11.9920043 118.22830994 12.01686712 130.01918963 12.03784702 141.81010278 C12.05960723 153.908087 12.09265972 166.00600234 12.13620156 178.10392797 C12.16271453 185.56939527 12.18041249 193.03477672 12.18684604 200.50028877 C12.19272211 206.22422957 12.21430697 211.94802778 12.24177551 217.6719017 C12.25058112 220.02047623 12.25427313 222.36907626 12.25250816 224.71766663 C12.25086056 227.92126794 12.26751152 231.12427005 12.28877258 234.32778931 C12.28392501 235.25970364 12.27907743 236.19161798 12.27408296 237.15177214 C12.33022356 242.26857939 12.77822429 245.90875534 15.6875 250.3125 C21.15813853 253.39497475 28.01561971 252.59699382 34.12426758 252.58374023 C35.3755545 252.58896698 36.62684143 252.59419373 37.91604614 252.59957886 C40.63176268 252.60981328 43.34722648 252.61653623 46.06293678 252.61746025 C50.37379064 252.6194111 54.68448587 252.63752449 58.99528503 252.65821838 C69.71124909 252.70728859 80.42725648 252.73815664 91.14331055 252.75952148 C99.45851604 252.77613222 107.77358551 252.79921733 116.08870047 252.84254223 C119.66345034 252.86058411 123.23801541 252.87295662 126.81281471 252.87124443 C175.39696603 252.85481301 175.39696603 252.85481301 190.59375 267.87890625 C196.84625251 275.14627391 198.33225892 282.46359179 199.1328125 291.796875 C199.72454456 295.54728945 200.67985312 298.09931574 202.6875 301.3125 C206.739873 303.2239967 208.71266968 303.62518142 213 302.25 C216.14790114 299.9805829 216.55846209 298.96322171 217.6875 295.3125 C218.03422793 292.7010333 218.32043609 290.11985982 218.5625 287.5 C219.85367081 276.12307985 223.66792316 269.55864238 232.6875 262.3125 C246.08127346 254.12177055 262.22839636 253.16822476 277.51000977 253.15478516 C279.45580214 253.1469864 281.4015945 253.13918358 283.34738624 253.13122725 C285.4249393 253.1235488 287.5024881 253.11814648 289.58004951 253.11326981 C293.92189116 253.1025244 298.26365672 253.08226506 302.60545349 253.06015015 C314.94681326 252.99843656 327.28816625 252.94418881 339.62963867 252.91113281 C346.45680964 252.89276727 353.28385068 252.86381533 360.11092609 252.8231281 C363.71773226 252.80210656 367.32437516 252.78660758 370.9312458 252.78432083 C374.95247428 252.78176779 378.97324791 252.75627556 382.99438477 252.72900391 C384.77520195 252.73351311 384.77520195 252.73351311 386.59199524 252.7381134 C392.66496753 252.67688787 397.43119925 252.512613 402.6875 249.3125 C404.47353979 246.48430809 404.93904097 244.31014405 404.94921303 240.99405289 C404.95667852 240.13265678 404.96414401 239.27126067 404.97183573 238.38376164 C404.969901 237.44213068 404.96796626 236.50049971 404.9659729 235.53033447 C404.9746615 234.02450243 404.9746615 234.02450243 404.98352563 232.48824954 C405.00056932 229.11485544 405.00340592 225.74159779 405.00634766 222.36816406 C405.01564281 219.95380822 405.02581085 217.53945559 405.03678894 215.12510681 C405.05847715 209.92226895 405.07407629 204.71945044 405.08415604 199.51657867 C405.09874015 191.99409939 405.1242762 184.47168866 405.15248732 176.9492496 C405.19796019 164.74466762 405.23457295 152.54007578 405.265625 140.33544922 C405.29580852 128.47963732 405.33015787 116.62384956 405.37011719 104.76806641 C405.37257874 104.03730338 405.37504028 103.30654036 405.37757643 102.553633 C405.38995099 98.88761785 405.40240753 95.22160298 405.41490483 91.55558825 C405.51848004 61.14125855 405.60753341 30.72690147 405.6875 0.3125 C409.7704596 0.16731818 413.85275641 0.07846653 417.9375 0 C419.09636719 -0.04189453 420.25523437 -0.08378906 421.44921875 -0.12695312 C429.83460594 -0.24812924 429.83460594 -0.24812924 433.45220852 2.12981415 C435.32000625 6.94213052 435.24141255 11.42618123 435.2021637 16.54797363 C435.20910922 17.69619614 435.21605475 18.84441865 435.22321075 20.02743578 C435.23834057 23.210528 435.23553087 26.39302047 435.22505772 29.57611299 C435.21806792 33.01041361 435.23406187 36.44461849 435.24705505 39.87889099 C435.2687036 46.60500294 435.2685661 53.33094576 435.26042951 60.0570811 C435.25413146 65.5231832 435.25526473 70.98923595 435.26170158 76.45533752 C435.26260324 77.23309297 435.26350489 78.01084841 435.26443387 78.8121722 C435.26628506 80.39213289 435.26814762 81.97209357 435.27002143 83.55205423 C435.28660268 98.36980399 435.27787774 113.18745855 435.26103585 128.00520259 C435.2463365 141.56512949 435.26096995 155.12483485 435.28980602 168.68473321 C435.31918939 182.60556262 435.33017554 196.52628974 435.32062382 210.4471488 C435.31960125 212.02132001 435.31860664 213.59549123 435.3176403 215.16966248 C435.31716391 215.94419896 435.31668752 216.71873545 435.3161967 217.51674274 C435.31403127 222.97674178 435.32384336 228.43664411 435.33841133 233.8966217 C435.35591556 240.54993586 435.35584496 247.20296748 435.33305968 253.85627043 C435.32190012 257.25144445 435.31879276 260.64612034 435.33736038 264.04127312 C435.35320341 267.7203377 435.33842008 271.39802769 435.31568909 275.07702637 C435.32752482 276.15240803 435.33936054 277.2277897 435.35155493 278.33575869 C435.29254243 283.01848201 435.21583134 285.53997448 432.52424717 289.47560596 C429.25207527 291.5944529 427.54424536 291.93765793 423.6713562 291.9382782 C422.46347443 291.95067535 421.25559265 291.96307251 420.0111084 291.97584534 C418.69372681 291.96407761 417.37634521 291.95230988 416.01904297 291.94018555 C414.61071833 291.94536682 413.20240037 291.95276874 411.7940979 291.96221924 C408.7628804 291.97777912 405.73221595 291.97761289 402.70098495 291.96521568 C397.88968912 291.94561736 393.07888065 291.9609123 388.26760864 291.98066711 C380.63696618 292.00783155 373.00652252 292.01130915 365.37584126 292.00489408 C351.76739959 291.99399127 338.15902206 292.01890397 324.55064118 292.05864173 C319.787533 292.07157169 315.02460709 292.07276893 310.26149046 292.064776 C271.55975699 291.49165115 271.55975699 291.49165115 235.6875 304.3125 C234.92824219 304.76367188 234.16898438 305.21484375 233.38671875 305.6796875 C225.41899728 310.99150182 220.60128458 320.0450637 218.6875 329.3125 C218.52448535 330.70018803 218.37751511 332.08980765 218.2421875 333.48046875 C218.13148926 334.60859985 218.13148926 334.60859985 218.01855469 335.75952148 C217.88374468 337.26623099 217.77148522 338.77517091 217.68457031 340.28540039 C217.35914537 344.21881705 216.79689374 346.17584749 214.3046875 349.2890625 C211.6875 351.3125 211.6875 351.3125 208.6875 351.9375 C204.5951449 351.08492602 203.29008164 349.55716592 200.6875 346.3125 C200.12708327 343.51041637 199.82242338 341.12788014 199.6875 338.3125 C198.73894172 326.89781289 195.59329027 315.17350281 186.5703125 307.515625 C163.66007352 290.38784251 132.92922682 292.02332425 105.71338463 292.06867027 C100.86720275 292.07638073 96.02116445 292.06551793 91.17500305 292.0514679 C77.4103623 292.01399585 63.64579323 291.9955954 49.88110352 292.00708008 C42.24521055 292.01329343 34.60955526 292.00174956 26.97372085 291.97063476 C22.15784739 291.95201085 17.34264923 291.95526433 12.52678716 291.97480237 C9.53930232 291.98168037 6.5521851 291.96773874 3.56476974 291.94785309 C2.18167219 291.94280586 0.79851289 291.94629082 -0.5845356 291.95898628 C-2.47352206 291.97509477 -4.36270594 291.95750864 -6.25166321 291.9382782 C-7.30770406 291.93811046 -8.36374491 291.93794271 -9.45178699 291.93776989 C-13.59430387 291.0323344 -14.91405822 289.82334983 -17.3125 286.3125 C-18.0434378 282.56718111 -17.98689331 278.88304054 -17.94741821 275.07702637 C-17.95521817 273.92880386 -17.96301812 272.78058135 -17.97105443 271.59756422 C-17.98754694 268.41434609 -17.98161331 265.23208135 -17.96612334 262.04888701 C-17.95481386 258.61457606 -17.97227046 255.18039432 -17.98602295 251.74610901 C-18.00826439 245.01995634 -18.00345028 238.29408253 -17.98895974 231.5679189 C-17.97767101 226.10181013 -17.976135 220.63577955 -17.98157883 215.16966248 C-17.98234499 214.39190703 -17.98311116 213.61415159 -17.98390054 212.8128278 C-17.98549916 211.2328671 -17.98712022 209.65290642 -17.9887635 208.07294577 C-18.00302364 193.25516966 -17.98662415 178.43754817 -17.95976166 163.61979741 C-17.9374226 150.90351797 -17.94130266 138.18746673 -17.96435547 125.47119141 C-17.99110883 110.70670644 -18.00165032 95.94235702 -17.98629415 81.1778512 C-17.98470139 79.60368 -17.98312954 78.02950877 -17.98157883 76.45533752 C-17.98080745 75.68080104 -17.98003607 74.90626455 -17.97924132 74.10825726 C-17.97492291 68.64826453 -17.98221387 63.18835772 -17.99397659 57.7283783 C-18.00799503 51.07505246 -18.00421577 44.42202158 -17.97757287 37.76872957 C-17.96442545 34.37356352 -17.95929719 30.97888937 -17.97581863 27.58372688 C-17.98942898 23.90464769 -17.97240984 20.22696331 -17.94741821 16.54797363 C-17.95857182 15.47259197 -17.96972543 14.3972103 -17.98121703 13.28924131 C-17.92267682 8.86370319 -17.71622257 6.03838271 -15.54234886 2.12981415 C-10.49572727 -0.7097295 -5.67773477 -0.21569419 0 0 Z " fill="#DCE0DF" transform="translate(37.3125,82.6875)"/>
</svg>
